<svg width="576" height="938" viewBox="0 0 576 938" fill="none" xmlns="http://www.w3.org/2000/svg">
<path d="M497.981 409.642C422.981 437.142 369.481 387.142 217.166 306.317C93.4417 206.359 99.9759 141.183 137.981 94.1416C175.986 47.1005 231.07 36.0081 354.795 135.967C478.519 235.925 535.986 362.601 497.981 409.642Z" fill="#D4B25B"/>
<path d="M180.432 51.5099C187.263 95.9076 184.173 133.227 173.529 134.865C162.884 136.503 148.717 101.839 141.885 57.4414C135.053 13.0437 143.61 11.2452 154.254 9.60725C164.898 7.96932 173.6 7.11217 180.432 51.5099Z" fill="#D4B25B"/>
<path d="M265.86 58.8443C244.669 99.0924 219.765 127.652 210.235 122.635C200.706 117.618 210.16 80.9228 231.351 40.6747C252.543 0.426672 260.492 4.0674 270.022 9.0848C279.551 14.1022 287.052 18.5963 265.86 58.8443Z" fill="#D4B25B"/>
<path d="M209.473 631.84C183.213 928.916 156.473 930.84 110.473 930.84C0.472782 919.34 1.26019 906.818 27.5196 609.743C53.779 312.667 127.692 76.4918 192.608 82.23C257.525 87.9681 235.732 334.765 209.473 631.84Z" fill="#D4B25B"/>
<ellipse cx="243.481" cy="162.142" rx="43.5" ry="46.5" fill="white"/>
</svg>
