<svg width="1003" height="592" viewBox="0 0 1003 592" fill="none" xmlns="http://www.w3.org/2000/svg">
<path d="M8.64513 325.219C9.35195 303.407 17.5469 282.503 31.8522 266.023L80.618 209.841C104.762 182.025 138.708 164.598 175.382 161.191L593.584 122.339C602.263 121.533 609.542 115.449 611.875 107.05L622.78 67.7904C622.926 67.267 623.156 66.7707 623.461 66.3212L632.5 53L650 61.5L691.535 105.176C696.085 109.961 701.897 113.361 708.297 114.984L771.054 130.892C781.243 133.474 792.053 131.049 800.161 124.361L830.848 99.0487C836.838 94.1085 841.378 87.6389 843.987 80.3266L871.413 3.45386C872.711 -0.181853 877.896 -0.0525266 879.011 3.64333L899.191 70.5755C903.341 84.3377 904.243 98.8744 901.829 113.044L888.369 192.03C887.995 194.229 890.955 195.298 892.072 193.368L943.32 104.777C945.743 100.588 952.109 101.941 952.62 106.752L972.241 291.5L997.262 324.747C1001.49 330.36 1003.36 337.399 1002.48 344.369L995.294 401.168C993.825 412.787 985.244 422.273 973.838 424.932C866.502 449.955 798.113 465.899 692.32 490.562C676.685 494.207 664.36 506.264 660.394 521.821L642.5 592H305.85H0L8.64513 325.219Z" fill="#D4B25B"/>
</svg>
